# xmcd
#
# Track frame offsets: 
#        187
#        88240
#        121420
#        168237
#        230690
#        262245
#
# Disc length: 3876 seconds
#
# Revision: 3
# Processed by: cddbd v1.5.2PL0 Copyright (c) Steve Scherf et al.
# Submitted via: ExactAudioCopy v1.0b3
#
DISCID=510f2206
DTITLE=Wilhelm Backhaus, Clemens Krauss, Vienna Philharmonic Orchestra
DTITLE=Various Artist - Beethoven Piano Concerto No. 2, 5 "Emperor" - Backhaus
DYEAR=1952
DGENRE=Classical
TTITLE0=Piano Concerto No.5 in E flat major,Op.73 Emperor - 1. Allegro
TTITLE1=Piano Concerto No.5 in E flat major,Op.73 Emperor - 2. Adagio 
TTITLE1=un poco mosso
TTITLE2=Piano Concerto No.5 in E flat major,Op.73 Emperor - 3. Rondo (
TTITLE2=Allegro)
TTITLE3=Piano Concerto No.2 in B flat major Op.19 - 1. Allegro con bri
TTITLE3=o
TTITLE4=Piano Concerto No.2 in B flat major Op.19 - 2. Adagio
TTITLE5=Piano Concerto No.2 in B flat major Op.19 - 3. Rondo (Molto al
TTITLE5=legro)
EXTD=
EXTT0=
EXTT1=
EXTT2=
EXTT3=
EXTT4=
EXTT5=
PLAYORDER=
